<svg width="64" height="57" fill="none" xmlns="http://www.w3.org/2000/svg"><g clip-path="url(#clip0_26_111)"><path d="M32 0L13.964 1.872 0 20.278l32 36.589 32-36.59L50.036 1.873 32 0z" fill="#FDB300"/><path d="M0 20.278l32 36.59-19.038-36.59H0zm51.038 0L32 56.868l32-36.59H51.038z" fill="#EB6C00"/><path d="M12.962 20.278L32 56.868l19.039-36.59H12.962z" fill="#FDAD00"/><path d="M13.964 1.872L12.96 20.278 32 0 13.964 1.872zm37.074 18.406L50.036 1.872 32 0l19.038 20.278z" fill="#FDD231"/><path d="M51.038 20.278H64L50.036 1.872l1.002 18.406zM0 20.278h12.961l1.003-18.406L0 20.278z" fill="#FDAD00"/><path d="M32 0L12.962 20.278h38.077L32 0z" fill="#FEEEB7"/></g><defs><clipPath id="clip0_26_111"><path fill="#fff" d="M0 0h64v56.95H0z"/></clipPath></defs></svg>