<svg width="65" height="63" fill="none" xmlns="http://www.w3.org/2000/svg"><g opacity=".78"><mask id="a" style="mask-type:alpha" maskUnits="userSpaceOnUse" x="0" y="0" width="65" height="63"><path d="M45.913 62.497a4.125 4.125 0 003.212-.12l13.33-6.25a4.014 4.014 0 001.672-1.456 3.87 3.87 0 00.62-2.098v-42.38a3.87 3.87 0 00-.62-2.098 4.014 4.014 0 00-1.671-1.455L49.126.39A4.126 4.126 0 0046.7.056a4.068 4.068 0 00-2.175 1.095l-25.52 22.686L7.89 15.615a2.744 2.744 0 00-1.75-.531 2.733 2.733 0 00-1.693.68l-3.565 3.16a2.585 2.585 0 00-.003 3.888l9.64 8.57-9.64 8.57a2.585 2.585 0 00.003 3.887L4.448 47a2.732 2.732 0 001.694.681 2.743 2.743 0 001.749-.531l11.116-8.222 25.52 22.686c.394.385.866.685 1.386.883zm2.657-45.436L29.207 31.383 48.57 45.705V17.06z" fill="#fff"/></mask><g mask="url(#a)"><path d="M62.495 6.65L49.155.39a4.128 4.128 0 00-2.426-.333 4.07 4.07 0 00-2.176 1.095L.88 39.952a2.584 2.584 0 00.003 3.888L4.451 47a2.735 2.735 0 001.694.681c.63.028 1.249-.16 1.75-.531L60.489 8.273c1.764-1.304 4.299-.078 4.299 2.08v-.151a3.88 3.88 0 00-.62-2.098 4.013 4.013 0 00-1.672-1.455z" fill="#0065A9"/><path d="M62.495 56.116l-13.34 6.259a4.13 4.13 0 01-2.426.333 4.07 4.07 0 01-2.176-1.095L.88 22.813a2.584 2.584 0 01.003-3.888l3.568-3.16a2.735 2.735 0 011.695-.681 2.742 2.742 0 011.75.532l52.592 38.876c1.764 1.304 4.299.078 4.299-2.08v.151a3.87 3.87 0 01-.62 2.098 4.013 4.013 0 01-1.672 1.455z" fill="#007ACC"/><path d="M49.113 62.38a4.13 4.13 0 01-2.426.333 4.072 4.072 0 01-2.176-1.096c1.493 1.455 4.046.424 4.046-1.634V2.79c0-2.058-2.553-3.088-4.046-1.633A4.072 4.072 0 0146.687.06a4.13 4.13 0 012.426.333l13.338 6.25a4.013 4.013 0 011.672 1.455 3.87 3.87 0 01.62 2.098v42.38c0 1.516-.89 2.897-2.292 3.554l-13.338 6.25z" fill="#1F9CF0"/><path d="M45.913 62.496a4.127 4.127 0 003.212-.12l13.33-6.25a4.013 4.013 0 001.672-1.455c.405-.629.62-1.356.62-2.099v-42.38a3.87 3.87 0 00-.62-2.098 4.014 4.014 0 00-1.671-1.455L49.126.389A4.126 4.126 0 0046.7.056a4.068 4.068 0 00-2.175 1.096l-25.52 22.686L7.89 15.616a2.744 2.744 0 00-1.75-.532 2.732 2.732 0 00-1.693.681l-3.565 3.16a2.585 2.585 0 00-.003 3.888l9.64 8.57-9.64 8.569a2.585 2.585 0 00.003 3.888L4.448 47a2.732 2.732 0 001.694.68 2.744 2.744 0 001.749-.531l11.116-8.222 25.519 22.686c.394.385.867.686 1.387.883zM48.57 17.06L29.207 31.383l19.363 14.32V17.06z" fill="url(#paint0_linear_26_121)" fill-opacity=".25"/></g></g><defs><linearGradient id="paint0_linear_26_121" x1="32.374" y1="0" x2="32.374" y2="62.765" gradientUnits="userSpaceOnUse"><stop stop-color="#fff"/><stop offset="1" stop-color="#fff" stop-opacity="0"/></linearGradient></defs></svg>