<svg width="64" height="64" fill="none" xmlns="http://www.w3.org/2000/svg"><g opacity=".78"><path d="M4 24.267c0-7.094 0-10.641 1.38-13.35a12.667 12.667 0 015.536-5.536C13.626 4 17.173 4 24.266 4h15.467c7.094 0 10.641 0 13.35 1.38a12.667 12.667 0 015.536 5.536C60 13.626 60 17.173 60 24.266v15.467c0 7.094 0 10.641-1.38 13.35a12.666 12.666 0 01-5.536 5.536C50.374 60 46.827 60 39.734 60H24.266c-7.094 0-10.641 0-13.35-1.38a12.667 12.667 0 01-5.536-5.536C4 50.374 4 46.827 4 39.734V24.266z" fill="#1E252B"/><path d="M19.733 32.8c-7.8 5.74-9.333 14.133-9.333 21.133.356-2.089 1.987-6.986 5.667-9.866 5.466-4.279 15.466-2.87 26.4-10.134 10.933-7.264 12-16.733 10.6-24-.973 7.012-4.293 10.068-8.867 12.8-9.933 5.934-16.133 3.934-24.467 10.067z" fill="url(#paint0_linear_50_198)"/><path d="M19.733 32.8c-7.8 5.74-9.333 14.133-9.333 21.133.356-2.089 1.987-6.986 5.667-9.866 5.466-4.279 15.466-2.87 26.4-10.134 10.933-7.264 12-16.733 10.6-24-.973 7.012-4.293 10.068-8.867 12.8-9.933 5.934-16.133 3.934-24.467 10.067z" fill="url(#paint1_linear_50_198)"/><path d="M10.493 51.064c.428-6.325 2.482-13.29 9.24-18.264 4.345-3.197 8.11-4.184 12.125-5.237 2.344-.615 4.773-1.252 7.453-2.363-.978.933-5.624 3.113-9.128 4.57-3.496 1.453-7.181 2.984-10.25 5.03-6.156 4.104-8.66 11.245-9.44 16.264z" fill="url(#paint2_linear_50_198)"/><path d="M10.493 51.064c.428-6.325 2.482-13.29 9.24-18.264 4.345-3.197 8.11-4.184 12.125-5.237 2.344-.615 4.773-1.252 7.453-2.363-.978.933-5.624 3.113-9.128 4.57-3.496 1.453-7.181 2.984-10.25 5.03-6.156 4.104-8.66 11.245-9.44 16.264z" fill="url(#paint3_linear_50_198)"/><path d="M48.435 28.742a13.86 13.86 0 01-2.568 1.991c-4.267 2.56-8.802 3.386-13.215 4.19-3.516.64-6.955 1.265-10.119 2.744C15.401 41 11.001 47.932 10.4 53.932v-.002c0-.458.007-.922.021-1.391a26.29 26.29 0 01.24-2.446c.942-4.935 3.503-11.447 9.272-15.293 2.443-1.628 5.275-2.93 8.092-4.127 2.478-.813 4.71-1.32 6.838-1.802 3.348-.759 6.435-1.459 9.804-3.204 7.068-3.663 8.92-11.19 8.422-15.617 1.057 5.61.63 12.51-4.654 18.692z" fill="url(#paint4_linear_50_198)"/><path d="M48.435 28.742a13.859 13.859 0 01-2.568 1.991c-4.267 2.56-8.802 3.386-13.215 4.19-3.516.64-6.955 1.265-10.119 2.744-4.102 1.917-7.3 5.024-9.391 8.46 1.845-2.593 4.656-5.49 8.125-6.594 3.384-1.077 6.613-1.188 9.966-1.303.962-.033 1.933-.067 2.922-.124 2.664-.97 5.456-2.275 8.312-4.173 2.461-1.635 4.422-3.382 5.968-5.191z" fill="url(#paint5_linear_50_198)"/><path d="M48.435 28.742a13.859 13.859 0 01-2.568 1.991c-4.267 2.56-8.802 3.386-13.215 4.19-3.516.64-6.955 1.265-10.119 2.744-4.102 1.917-7.3 5.024-9.391 8.46 1.845-2.593 4.656-5.49 8.125-6.594 3.384-1.077 6.613-1.188 9.966-1.303.962-.033 1.933-.067 2.922-.124 2.664-.97 5.456-2.275 8.312-4.173 2.461-1.635 4.422-3.382 5.968-5.191z" fill="url(#paint6_linear_50_198)"/><path d="M53.089 10.05l-.022-.117c-.973 7.012-4.293 10.068-8.867 12.8a37.454 37.454 0 01-4.889 2.467c-.978.934-5.624 3.113-9.128 4.57h-.001c-.713.297-1.434.596-2.157.903 2.478-.813 4.71-1.32 6.837-1.802 3.35-.759 6.436-1.459 9.805-3.204 7.068-3.663 8.92-11.19 8.422-15.617z" fill="url(#paint7_linear_50_198)"/><path d="M53.089 10.05l-.022-.117c-.973 7.012-4.293 10.068-8.867 12.8a37.454 37.454 0 01-4.889 2.467c-.978.934-5.624 3.113-9.128 4.57h-.001c-.713.297-1.434.596-2.157.903 2.478-.813 4.71-1.32 6.837-1.802 3.35-.759 6.436-1.459 9.805-3.204 7.068-3.663 8.92-11.19 8.422-15.617z" fill="url(#paint8_linear_50_198)"/></g><defs><linearGradient id="paint0_linear_50_198" x1="34.8" y1="36.4" x2="11.733" y2="52.933" gradientUnits="userSpaceOnUse"><stop stop-color="#FE5004"/><stop offset=".603" stop-color="#FFB915"/><stop offset="1" stop-color="#FFFC41"/></linearGradient><linearGradient id="paint1_linear_50_198" x1="25.667" y1="37.8" x2="25.8" y2="40.2" gradientUnits="userSpaceOnUse"><stop stop-color="#FD3E00"/><stop offset="1" stop-color="#FD4400" stop-opacity="0"/></linearGradient><linearGradient id="paint2_linear_50_198" x1="39.333" y1="24" x2="6.8" y2="52.933" gradientUnits="userSpaceOnUse"><stop stop-color="#005FC6"/><stop offset=".28" stop-color="#23A4DF"/><stop offset=".465" stop-color="#3AC2B7"/><stop offset=".641" stop-color="#60EC7A"/><stop offset=".819" stop-color="#CFFDBD"/><stop offset="1" stop-color="#D0FCB6"/></linearGradient><linearGradient id="paint3_linear_50_198" x1="32.733" y1="29.533" x2="29.933" y2="27" gradientUnits="userSpaceOnUse"><stop stop-color="#0061CB"/><stop offset="1" stop-color="#067EEA" stop-opacity="0"/></linearGradient><linearGradient id="paint4_linear_50_198" x1="53.2" y1="10" x2="10.4" y2="53.867" gradientUnits="userSpaceOnUse"><stop stop-color="#8E55F1"/><stop offset=".141" stop-color="#8B48DF"/><stop offset=".275" stop-color="#E04DD9"/><stop offset=".492" stop-color="#F496C8"/><stop offset=".633" stop-color="#FAD2BA"/><stop offset=".857" stop-color="#FEF7E5"/><stop offset="1" stop-color="#FFF5BF"/></linearGradient><linearGradient id="paint5_linear_50_198" x1="49" y1="28.333" x2="14.067" y2="44.133" gradientUnits="userSpaceOnUse"><stop stop-color="#F41A73"/><stop offset=".4" stop-color="#FC50A3"/><stop offset=".585" stop-color="#FE9485"/><stop offset=".703" stop-color="#FFAF88"/><stop offset="1" stop-color="#FFC385"/></linearGradient><linearGradient id="paint6_linear_50_198" x1="36.4" y1="33.2" x2="36.467" y2="36.4" gradientUnits="userSpaceOnUse"><stop stop-color="#9B0008"/><stop offset="1" stop-color="#EA115A" stop-opacity="0"/></linearGradient><linearGradient id="paint7_linear_50_198" x1="53.2" y1="13.6" x2="21.667" y2="34.2" gradientUnits="userSpaceOnUse"><stop stop-color="#231283"/><stop offset=".363" stop-color="#7053C6"/><stop offset=".466" stop-color="#7272DB"/><stop offset=".634" stop-color="#399EE9"/><stop offset="1" stop-color="#00CFFF"/></linearGradient><linearGradient id="paint8_linear_50_198" x1="45.333" y1="24" x2="46.733" y2="25.8" gradientUnits="userSpaceOnUse"><stop stop-color="#3F259D" stop-opacity="0"/><stop offset="1" stop-color="#412DAA"/></linearGradient></defs></svg>