<svg width="64" height="64" fill="none" xmlns="http://www.w3.org/2000/svg"><g opacity=".78"><path fill-rule="evenodd" clip-rule="evenodd" d="M11.432 58.436l-6.879-8.57A11.506 11.506 0 012 42.66V11.63c0-3.909 3.127-7.152 7.161-7.428l31.903-2.178A10.398 10.398 0 0147.59 3.77l11.208 7.579C60.805 12.704 62 14.922 62 17.288v35.278c0 3.825-3.075 6.993-7.025 7.236l-35.408 2.18c-3.152.193-6.199-1.135-8.135-3.546z" fill="#fff"/><path d="M22.496 27.157v-.406c0-1.03.825-1.884 1.888-1.955l7.743-.517 10.707 15.768V26.208l-2.756-.367v-.193c0-1.042.844-1.902 1.92-1.957l7.045-.36v1.013a.99.99 0 01-.839.965l-1.695.287v22.411l-2.128.732c-1.777.611-3.756-.043-4.774-1.578L29.212 31.474v14.972l3.2.612-.045.297c-.14.93-.942 1.633-1.913 1.676l-7.958.354c-.105-1 .644-1.894 1.678-2.002l1.047-.11V27.31l-2.725-.153z" fill="#000"/><path fill-rule="evenodd" clip-rule="evenodd" d="M41.35 5.934L9.447 8.112c-1.91.13-3.392 1.666-3.392 3.518v31.03c0 1.74.599 3.43 1.702 4.804l6.879 8.57c1.112 1.385 2.862 2.148 4.673 2.036l35.408-2.18c1.815-.111 3.228-1.566 3.228-3.324V17.288a3.3 3.3 0 00-1.471-2.729L45.265 6.981a6.239 6.239 0 00-3.915-1.047zm-30.32 6.18c-.445-.329-.233-1.013.324-1.053l30.21-2.167a4.157 4.157 0 012.698.748l6.062 4.294c.23.163.122.515-.163.53l-31.993 1.74a4.153 4.153 0 01-2.694-.801l-4.445-3.291zm5.637 9.547c0-1.039.84-1.898 1.914-1.956l33.825-1.842c1.047-.057 1.928.748 1.928 1.76V50.17c0 1.038-.837 1.896-1.909 1.957l-33.611 1.912c-1.165.066-2.147-.829-2.147-1.956V21.661z" fill="#000"/></g></svg>