<svg width="65" height="64" fill="none" xmlns="http://www.w3.org/2000/svg"><g opacity=".78" clip-path="url(#clip0_32_0)" fill-rule="evenodd" clip-rule="evenodd"><path d="M13.672 40.22c0 .877-.175 1.747-.517 2.559a6.674 6.674 0 01-1.477 2.17 6.812 6.812 0 01-2.21 1.449 6.911 6.911 0 01-2.608.507 6.91 6.91 0 01-2.605-.509 6.813 6.813 0 01-2.21-1.449 6.673 6.673 0 01-1.474-2.17 6.575 6.575 0 01-.517-2.558c0-.878.175-1.748.517-2.56a6.673 6.673 0 011.476-2.169 6.812 6.812 0 012.21-1.449 6.911 6.911 0 012.606-.507h6.811v6.685h-.002zm3.404 0c0-.879.175-1.749.517-2.56a6.673 6.673 0 011.476-2.17 6.812 6.812 0 012.21-1.449 6.911 6.911 0 012.606-.507 6.898 6.898 0 012.606.507 6.812 6.812 0 012.21 1.45 6.673 6.673 0 011.476 2.169c.342.811.517 1.681.517 2.56v16.715a6.59 6.59 0 01-.517 2.56 6.672 6.672 0 01-1.476 2.17 6.813 6.813 0 01-2.21 1.449 6.913 6.913 0 01-2.606.507c-.895 0-1.78-.172-2.607-.508a6.814 6.814 0 01-2.21-1.449 6.672 6.672 0 01-1.475-2.17 6.576 6.576 0 01-.517-2.559V40.22z" fill="#E01E5A"/><path d="M23.885 13.374c-.895 0-1.78-.172-2.607-.508a6.815 6.815 0 01-2.21-1.45 6.674 6.674 0 01-1.476-2.17 6.576 6.576 0 01-.516-2.56c0-.879.175-1.748.517-2.56a6.673 6.673 0 011.476-2.17 6.813 6.813 0 012.21-1.449A6.912 6.912 0 0123.884 0c.894 0 1.78.172 2.606.507a6.813 6.813 0 012.21 1.45 6.673 6.673 0 011.476 2.17c.342.81.517 1.68.517 2.558v6.691h-6.806l-.003-.002zm0 3.393c.894 0 1.78.172 2.606.507a6.815 6.815 0 012.21 1.45 6.674 6.674 0 011.476 2.17 6.576 6.576 0 010 5.118 6.673 6.673 0 01-1.476 2.17 6.812 6.812 0 01-2.21 1.448 6.911 6.911 0 01-2.606.508H6.809c-.894 0-1.78-.172-2.606-.507a6.815 6.815 0 01-2.21-1.449 6.673 6.673 0 01-1.475-2.169 6.575 6.575 0 01-.001-5.117 6.672 6.672 0 011.476-2.17 6.813 6.813 0 012.21-1.449 6.913 6.913 0 012.606-.508h17.078l-.002-.002z" fill="#36C5F0"/><path d="M51.174 23.452c0-.878.175-1.748.517-2.56a6.672 6.672 0 011.476-2.17 6.812 6.812 0 012.211-1.448 6.91 6.91 0 012.607-.507c.895 0 1.78.172 2.607.507a6.815 6.815 0 012.21 1.45 6.674 6.674 0 011.475 2.17 6.593 6.593 0 010 5.118 6.673 6.673 0 01-1.476 2.17 6.812 6.812 0 01-2.21 1.448 6.911 6.911 0 01-2.606.508h-6.811v-6.686zm-3.405 0a6.592 6.592 0 01-.516 2.56 6.674 6.674 0 01-1.476 2.17 6.81 6.81 0 01-2.21 1.448 6.911 6.911 0 01-2.606.508 6.91 6.91 0 01-2.608-.507 6.814 6.814 0 01-2.21-1.449 6.674 6.674 0 01-1.477-2.17 6.575 6.575 0 01-.517-2.56V6.685c0-.878.175-1.748.517-2.56a6.673 6.673 0 011.477-2.17 6.814 6.814 0 012.21-1.448A6.912 6.912 0 0140.961 0c.894 0 1.78.172 2.606.507a6.812 6.812 0 012.21 1.45 6.675 6.675 0 011.476 2.17c.341.81.517 1.68.516 2.558v16.77-.003z" fill="#2EB67D"/><path d="M40.96 50.247c.895 0 1.78.172 2.607.508a6.815 6.815 0 012.21 1.449 6.674 6.674 0 011.475 2.17c.342.811.518 1.68.517 2.559a6.574 6.574 0 01-.516 2.56 6.676 6.676 0 01-1.475 2.17 6.815 6.815 0 01-2.21 1.45 6.913 6.913 0 01-2.607.508c-.895 0-1.78-.172-2.608-.508a6.815 6.815 0 01-2.21-1.45 6.676 6.676 0 01-1.475-2.17 6.576 6.576 0 01-.516-2.56v-6.686h6.809zm0-3.342c-.894 0-1.78-.172-2.606-.508a6.815 6.815 0 01-2.21-1.449 6.674 6.674 0 01-1.475-2.17 6.576 6.576 0 01-.517-2.559c0-.878.175-1.748.517-2.56a6.673 6.673 0 011.476-2.169 6.812 6.812 0 012.21-1.449 6.911 6.911 0 012.606-.507h17.076a6.898 6.898 0 012.606.507 6.812 6.812 0 012.21 1.45 6.674 6.674 0 011.476 2.169c.342.811.517 1.681.516 2.56a6.564 6.564 0 01-.516 2.558 6.676 6.676 0 01-1.476 2.17 6.815 6.815 0 01-2.21 1.45 6.913 6.913 0 01-2.606.507H40.96z" fill="#ECB22E"/></g><defs><clipPath id="clip0_32_0"><path fill="#fff" d="M0 0h65v63.823H0z"/></clipPath></defs></svg>